<svg xmlns="http://www.w3.org/2000/svg" xmlns:xlink="http://www.w3.org/1999/xlink" x="0" y="0" viewBox="0, 0, 36, 36" width="1em" height="1em"><g id="Layer_1"><path d="M0,0 L36,0 L36,36 L0,36 L0,0 z" fill="#6032F5"></path><path d="M12.672,21.675 C12.722,21.62 12.783,21.576 12.852,21.546 C12.92,21.516 12.994,21.5 13.068,21.5 L25.287,21.51 C25.339,21.51 25.39,21.525 25.433,21.554 C25.477,21.582 25.511,21.623 25.532,21.67 C25.553,21.718 25.56,21.771 25.551,21.822 C25.543,21.873 25.52,21.921 25.485,21.96 L22.883,24.825 C22.833,24.88 22.771,24.924 22.703,24.954 C22.635,24.984 22.561,25 22.486,25 L10.268,24.99 C10.216,24.99 10.165,24.975 10.122,24.946 C10.078,24.918 10.044,24.877 10.023,24.83 C10.002,24.782 9.995,24.729 10.004,24.678 C10.012,24.627 10.035,24.579 10.07,24.54 L12.672,21.675 z M25.485,19.29 C25.52,19.329 25.543,19.377 25.551,19.428 C25.56,19.479 25.553,19.532 25.532,19.58 C25.511,19.627 25.477,19.668 25.433,19.696 C25.39,19.725 25.339,19.74 25.287,19.74 L13.068,19.75 C12.994,19.75 12.92,19.734 12.852,19.704 C12.784,19.674 12.722,19.63 12.672,19.575 L10.07,16.708 C10.035,16.67 10.012,16.622 10.004,16.57 C9.995,16.519 10.002,16.466 10.023,16.419 C10.044,16.371 10.078,16.331 10.122,16.302 C10.165,16.274 10.216,16.258 10.268,16.258 L22.487,16.248 C22.561,16.248 22.635,16.264 22.703,16.294 C22.771,16.324 22.833,16.368 22.883,16.424 L25.485,19.29 z M12.672,11.175 C12.722,11.12 12.783,11.076 12.852,11.046 C12.92,11.016 12.994,11 13.068,11 L25.287,11.01 C25.339,11.01 25.39,11.025 25.433,11.054 C25.477,11.082 25.511,11.123 25.532,11.17 C25.553,11.218 25.56,11.271 25.551,11.322 C25.543,11.373 25.52,11.421 25.485,11.46 L22.883,14.325 C22.833,14.38 22.771,14.424 22.703,14.454 C22.635,14.484 22.561,14.5 22.486,14.5 L10.268,14.49 C10.216,14.49 10.165,14.475 10.122,14.446 C10.078,14.418 10.044,14.377 10.023,14.33 C10.002,14.282 9.995,14.229 10.004,14.178 C10.012,14.127 10.035,14.079 10.07,14.04 L12.672,11.175 z" fill="#FFFFFF"></path></g></svg>